<svg width="164" height="55" viewBox="0 0 164 55" fill="none" xmlns="http://www.w3.org/2000/svg">
<path fill-rule="evenodd" clip-rule="evenodd" d="M27.8035 0C12.4421 0 0 12.4421 0 27.8035C0 40.1066 7.95876 50.4982 19.0107 54.1821C20.4008 54.4254 20.9222 53.5913 20.9222 52.8615C20.9222 52.2011 20.8874 50.0116 20.8874 47.683C13.9018 48.969 12.0945 45.9801 11.5385 44.4161C11.2257 43.6168 9.87025 41.1492 8.6886 40.4889C7.71548 39.9676 6.3253 38.6817 8.65385 38.6469C10.8434 38.6122 12.4073 40.6627 12.9286 41.4968C15.431 45.702 19.4277 44.5204 21.0264 43.7906C21.2697 41.9833 21.9995 40.7669 22.7989 40.0718C16.6126 39.3767 10.1483 36.9787 10.1483 26.3438C10.1483 23.3202 11.2257 20.8179 12.9981 18.8716C12.7201 18.1766 11.747 15.3267 13.2762 11.5037C13.2762 11.5037 15.6047 10.7739 20.9222 14.3536C23.1464 13.728 25.5097 13.4152 27.873 13.4152C30.2363 13.4152 32.5996 13.728 34.8239 14.3536C40.1413 10.7391 42.4699 11.5037 42.4699 11.5037C43.9991 15.3267 43.026 18.1766 42.7479 18.8716C44.5204 20.8179 45.5978 23.2855 45.5978 26.3438C45.5978 37.0134 39.0987 39.3767 32.9124 40.0718C33.9203 40.9407 34.7892 42.6089 34.7892 45.2155C34.7892 48.9342 34.7544 51.9231 34.7544 52.8615C34.7544 53.5913 35.2757 54.4602 36.6659 54.1821C42.1853 52.3186 46.9814 48.7713 50.3792 44.0393C53.777 39.3074 55.6054 33.629 55.6071 27.8035C55.6071 12.4421 43.165 0 27.8035 0Z" fill="black"/>
<path d="M75.8174 12.4817H77.9593V19.6362C77.7827 19.6951 77.525 19.7613 77.1865 19.8349C76.8626 19.9086 76.4798 19.9822 76.0382 20.0558C75.6113 20.1294 75.1402 20.1883 74.625 20.2324C74.1097 20.2913 73.5871 20.3207 73.0572 20.3207C71.9825 20.3207 71.0036 20.1441 70.1203 19.7908C69.237 19.4375 68.4789 18.9222 67.8459 18.2451C67.2129 17.5679 66.7197 16.7361 66.3664 15.7498C66.0278 14.7635 65.8585 13.63 65.8585 12.3492C65.8585 11.0685 66.0499 9.93496 66.4326 8.94864C66.8301 7.9476 67.3601 7.1085 68.0225 6.43132C68.685 5.75415 69.4578 5.23891 70.3411 4.8856C71.2391 4.53229 72.196 4.35564 73.2117 4.35564C73.9036 4.35564 74.5146 4.3998 75.0445 4.48813C75.5892 4.57645 76.0529 4.6795 76.4357 4.79727C76.8184 4.91504 77.1276 5.03281 77.3631 5.15058C77.6134 5.26835 77.7827 5.35668 77.871 5.41556L77.1865 7.20418C76.7595 6.92448 76.1928 6.6963 75.4862 6.51965C74.7795 6.32827 74.0582 6.23259 73.3222 6.23259C72.5419 6.23259 71.828 6.37244 71.1802 6.65214C70.5472 6.93184 70.0025 7.33667 69.5462 7.86664C69.1045 8.3966 68.7586 9.04433 68.5083 9.80983C68.2581 10.5606 68.1329 11.4071 68.1329 12.3492C68.1329 13.2619 68.236 14.0937 68.4421 14.8445C68.6629 15.5952 68.9868 16.243 69.4137 16.7877C69.8553 17.3176 70.3926 17.7298 71.0257 18.0242C71.6734 18.3187 72.4315 18.4659 73.3001 18.4659C73.9184 18.4659 74.441 18.4364 74.8679 18.3775C75.3095 18.3039 75.626 18.2377 75.8174 18.1788V12.4817Z" fill="black"/>
<path d="M85.2215 20.0116H83.1679V8.52909H85.2215V20.0116ZM84.1836 6.4534C83.8156 6.4534 83.4991 6.33563 83.2341 6.10009C82.9838 5.84984 82.8587 5.51861 82.8587 5.10642C82.8587 4.69422 82.9838 4.37036 83.2341 4.13482C83.4991 3.88456 83.8156 3.75943 84.1836 3.75943C84.5516 3.75943 84.8608 3.88456 85.111 4.13482C85.376 4.37036 85.5085 4.69422 85.5085 5.10642C85.5085 5.51861 85.376 5.84984 85.111 6.10009C84.8608 6.33563 84.5516 6.4534 84.1836 6.4534Z" fill="black"/>
<path d="M92.6615 8.52909H97.0116V10.2515H92.6615V15.5511C92.6615 16.1252 92.7056 16.6036 92.7939 16.9864C92.8823 17.3544 93.0148 17.6489 93.1914 17.8697C93.3681 18.0758 93.5889 18.223 93.8539 18.3113C94.1189 18.3996 94.428 18.4438 94.7813 18.4438C95.3996 18.4438 95.8928 18.3776 96.2608 18.2451C96.6435 18.0978 96.9085 17.9948 97.0557 17.9359L97.4532 19.6362C97.2471 19.7393 96.8864 19.8644 96.3712 20.0116C95.8559 20.1735 95.2671 20.2545 94.6046 20.2545C93.8244 20.2545 93.1767 20.1588 92.6615 19.9674C92.1609 19.7613 91.7561 19.4596 91.447 19.0621C91.1378 18.6646 90.917 18.1788 90.7845 17.6047C90.6667 17.0158 90.6079 16.3387 90.6079 15.5732V5.32723L92.6615 4.97393V8.52909Z" fill="black"/>
<path d="M101.612 20.0116V3.22947L103.666 2.87616V8.7499C104.049 8.60269 104.453 8.49228 104.88 8.41868C105.322 8.33035 105.756 8.28619 106.183 8.28619C107.096 8.28619 107.854 8.41868 108.457 8.68366C109.061 8.93392 109.54 9.29459 109.893 9.76567C110.261 10.222 110.518 10.7741 110.666 11.4218C110.813 12.0695 110.886 12.7835 110.886 13.5637V20.0116H108.833V14.0054C108.833 13.2987 108.781 12.6952 108.678 12.1947C108.59 11.6941 108.435 11.2893 108.215 10.9802C107.994 10.671 107.699 10.4502 107.331 10.3177C106.963 10.1705 106.507 10.0969 105.962 10.0969C105.741 10.0969 105.513 10.1116 105.278 10.1411C105.042 10.1705 104.814 10.2073 104.593 10.2515C104.387 10.2809 104.196 10.3177 104.019 10.3619C103.857 10.406 103.739 10.4428 103.666 10.4723V20.0116H101.612Z" fill="black"/>
<path d="M125.356 19.6804C124.885 19.7981 124.26 19.9233 123.479 20.0558C122.714 20.1883 121.823 20.2545 120.808 20.2545C119.924 20.2545 119.181 20.1294 118.577 19.8791C117.974 19.6141 117.488 19.2461 117.12 18.775C116.752 18.3039 116.487 17.7519 116.325 17.1189C116.163 16.4712 116.082 15.7572 116.082 14.977V8.52909H118.136V14.5353C118.136 15.9338 118.357 16.9349 118.798 17.5384C119.24 18.142 119.983 18.4438 121.028 18.4438C121.249 18.4438 121.477 18.4364 121.713 18.4217C121.948 18.407 122.169 18.3923 122.375 18.3775C122.581 18.3481 122.765 18.326 122.927 18.3113C123.104 18.2819 123.229 18.2524 123.303 18.223V8.52909H125.356V19.6804Z" fill="black"/>
<path d="M132.935 9.03697C133.186 8.87504 133.561 8.70574 134.061 8.52909C134.577 8.35243 135.166 8.26411 135.828 8.26411C136.652 8.26411 137.381 8.41132 138.014 8.70574C138.662 9.00017 139.207 9.41236 139.648 9.94232C140.09 10.4723 140.421 11.1053 140.642 11.8414C140.877 12.5774 140.995 13.3871 140.995 14.2703C140.995 15.1978 140.855 16.0369 140.576 16.7877C140.311 17.5237 139.928 18.1494 139.427 18.6646C138.927 19.1799 138.323 19.5773 137.617 19.857C136.91 20.1367 136.115 20.2766 135.232 20.2766C134.275 20.2766 133.428 20.2103 132.692 20.0778C131.956 19.9454 131.353 19.8129 130.882 19.6804V3.22947L132.935 2.87616V9.03697ZM132.935 18.223C133.141 18.2819 133.428 18.3407 133.796 18.3996C134.179 18.4438 134.65 18.4659 135.21 18.4659C136.314 18.4659 137.197 18.1052 137.86 17.3839C138.522 16.6478 138.853 15.61 138.853 14.2703C138.853 13.6815 138.794 13.1295 138.677 12.6142C138.559 12.099 138.367 11.6573 138.102 11.2893C137.837 10.9066 137.491 10.6121 137.065 10.406C136.652 10.1852 136.152 10.0748 135.563 10.0748C135.004 10.0748 134.488 10.1705 134.017 10.3619C133.546 10.5532 133.186 10.752 132.935 10.9581V18.223Z" fill="black"/>
<path d="M66.4768 49.684V34.3813H75.8174V36.2141H68.6187V40.7629H75.0224V42.5515H68.6187V47.8512H76.3694V49.684H66.4768Z" fill="black"/>
<path d="M88.0082 49.684C87.8463 49.3601 87.6476 48.9994 87.412 48.6019C87.1765 48.2045 86.9189 47.7996 86.6392 47.3874C86.3595 46.9605 86.0724 46.541 85.778 46.1288C85.4836 45.7166 85.1965 45.3265 84.9168 44.9585C84.6371 45.3265 84.35 45.724 84.0556 46.1509C83.7612 46.5631 83.4741 46.9826 83.1944 47.4095C82.9294 47.8217 82.6792 48.2266 82.4436 48.624C82.2081 49.0215 82.0094 49.3748 81.8474 49.684H79.7276C80.2428 48.6829 80.8538 47.6672 81.5604 46.6367C82.2817 45.5915 82.9957 44.5978 83.7023 43.6556L79.9042 38.2014H82.2228L84.961 42.2203L87.7212 38.2014H89.9073L86.1975 43.5231C86.9042 44.48 87.6255 45.4958 88.3615 46.5704C89.1123 47.6303 89.7453 48.6682 90.2606 49.684H88.0082Z" fill="black"/>
<path d="M102.378 43.9648C102.378 42.6251 102.047 41.5947 101.384 40.8733C100.722 40.152 99.8384 39.7913 98.7343 39.7913C98.116 39.7913 97.6302 39.8134 97.2769 39.8576C96.9383 39.9017 96.666 39.9533 96.4599 40.0121V47.255C96.7101 47.4611 97.0708 47.6598 97.5419 47.8512C98.0129 48.0425 98.5282 48.1382 99.0876 48.1382C99.6764 48.1382 100.177 48.0352 100.589 47.8291C101.016 47.6083 101.362 47.3138 101.627 46.9458C101.892 46.5631 102.083 46.1214 102.201 45.6209C102.319 45.1057 102.378 44.5536 102.378 43.9648ZM104.52 43.9648C104.52 44.8333 104.402 45.6356 104.166 46.3717C103.946 47.1077 103.614 47.7408 103.173 48.2707C102.731 48.8007 102.186 49.2129 101.539 49.5073C100.906 49.8017 100.177 49.9489 99.3526 49.9489C98.6901 49.9489 98.1013 49.8606 97.586 49.684C97.0855 49.5073 96.7101 49.338 96.4599 49.1761V53.7691H94.4063V38.5547C94.8921 38.437 95.4956 38.3118 96.217 38.1794C96.953 38.0321 97.7995 37.9585 98.7564 37.9585C99.6396 37.9585 100.435 38.0984 101.141 38.3781C101.848 38.6578 102.451 39.0553 102.952 39.5705C103.452 40.0858 103.835 40.7188 104.1 41.4695C104.38 42.2056 104.52 43.0373 104.52 43.9648Z" fill="black"/>
<path d="M112.842 49.9048C111.576 49.8753 110.678 49.603 110.148 49.0877C109.618 48.5725 109.353 47.7702 109.353 46.6808V32.9018L111.406 32.5485V46.3496C111.406 46.6882 111.436 46.9679 111.495 47.1887C111.553 47.4095 111.649 47.5862 111.782 47.7187C111.914 47.8512 112.091 47.9542 112.312 48.0278C112.532 48.0867 112.805 48.1382 113.129 48.1824L112.842 49.9048Z" fill="black"/>
<path d="M127.558 43.9427C127.558 44.8554 127.425 45.6798 127.16 46.4159C126.895 47.1519 126.52 47.7849 126.034 48.3149C125.563 48.8448 124.996 49.257 124.334 49.5515C123.671 49.8312 122.95 49.971 122.17 49.971C121.39 49.971 120.668 49.8312 120.006 49.5515C119.343 49.257 118.769 48.8448 118.283 48.3149C117.812 47.7849 117.444 47.1519 117.179 46.4159C116.914 45.6798 116.782 44.8554 116.782 43.9427C116.782 43.0447 116.914 42.2277 117.179 41.4916C117.444 40.7408 117.812 40.1005 118.283 39.5705C118.769 39.0405 119.343 38.6357 120.006 38.356C120.668 38.0616 121.39 37.9144 122.17 37.9144C122.95 37.9144 123.671 38.0616 124.334 38.356C124.996 38.6357 125.563 39.0405 126.034 39.5705C126.52 40.1005 126.895 40.7408 127.16 41.4916C127.425 42.2277 127.558 43.0447 127.558 43.9427ZM125.416 43.9427C125.416 42.6472 125.121 41.6241 124.532 40.8733C123.958 40.1078 123.171 39.7251 122.17 39.7251C121.169 39.7251 120.374 40.1078 119.785 40.8733C119.211 41.6241 118.924 42.6472 118.924 43.9427C118.924 45.2382 119.211 46.2686 119.785 47.0341C120.374 47.7849 121.169 48.1603 122.17 48.1603C123.171 48.1603 123.958 47.7849 124.532 47.0341C125.121 46.2686 125.416 45.2382 125.416 43.9427Z" fill="black"/>
<path d="M136.674 37.9585C136.851 37.9585 137.049 37.9733 137.27 38.0027C137.506 38.0174 137.734 38.0469 137.955 38.091C138.176 38.1205 138.374 38.1573 138.551 38.2014C138.742 38.2309 138.882 38.2603 138.971 38.2898L138.617 40.0784C138.455 40.0195 138.183 39.9533 137.8 39.8797C137.432 39.7913 136.954 39.7472 136.365 39.7472C135.982 39.7472 135.599 39.7913 135.217 39.8797C134.849 39.9533 134.606 40.0048 134.488 40.0342V49.684H132.434V38.6872C132.92 38.5106 133.524 38.3487 134.245 38.2014C134.966 38.0395 135.776 37.9585 136.674 37.9585Z" fill="black"/>
<path d="M142.299 43.9648C142.299 42.949 142.446 42.0658 142.741 41.315C143.035 40.5495 143.425 39.9165 143.911 39.4159C144.397 38.9154 144.956 38.54 145.589 38.2898C146.222 38.0395 146.87 37.9144 147.533 37.9144C149.078 37.9144 150.263 38.4002 151.088 39.3718C151.912 40.3287 152.324 41.7934 152.324 43.766C152.324 43.8544 152.324 43.9721 152.324 44.1193C152.324 44.2518 152.317 44.377 152.302 44.4947H144.441C144.529 45.6872 144.875 46.5925 145.479 47.2108C146.082 47.8291 147.025 48.1382 148.305 48.1382C149.027 48.1382 149.63 48.0793 150.116 47.9616C150.617 47.8291 150.992 47.704 151.242 47.5862L151.529 49.3086C151.279 49.4411 150.837 49.5809 150.204 49.7281C149.586 49.8753 148.88 49.9489 148.085 49.9489C147.084 49.9489 146.215 49.8017 145.479 49.5073C144.758 49.1982 144.161 48.7786 143.69 48.2486C143.219 47.7187 142.866 47.093 142.63 46.3717C142.41 45.6356 142.299 44.8333 142.299 43.9648ZM150.182 42.8386C150.197 41.9112 149.962 41.153 149.476 40.5642C149.005 39.9606 148.35 39.6588 147.51 39.6588C147.039 39.6588 146.62 39.7545 146.252 39.9459C145.898 40.1226 145.597 40.3581 145.346 40.6525C145.096 40.9469 144.897 41.2855 144.75 41.6683C144.618 42.051 144.529 42.4411 144.485 42.8386H150.182Z" fill="black"/>
<path d="M161.501 37.9585C161.678 37.9585 161.877 37.9733 162.098 38.0027C162.333 38.0174 162.561 38.0469 162.782 38.091C163.003 38.1205 163.202 38.1573 163.378 38.2014C163.57 38.2309 163.709 38.2603 163.798 38.2898L163.445 40.0784C163.283 40.0195 163.01 39.9533 162.627 39.8797C162.259 39.7913 161.781 39.7472 161.192 39.7472C160.809 39.7472 160.427 39.7913 160.044 39.8797C159.676 39.9533 159.433 40.0048 159.315 40.0342V49.684H157.262V38.6872C157.747 38.5106 158.351 38.3487 159.072 38.2014C159.794 38.0395 160.603 37.9585 161.501 37.9585Z" fill="black"/>
</svg>
